<svg width="33" height="33" viewBox="0 0 33 33" fill="none" xmlns="http://www.w3.org/2000/svg">
<g clip-path="url(#clip0_9716_3103)">
<path d="M16.2585 0.615243C19.3963 0.620127 22.4617 1.56812 25.0654 3.33876C27.669 5.10939 29.6933 7.62273 30.8809 10.5594C32.0685 13.496 32.3659 16.7233 31.7352 19.8312C31.1045 22.9391 29.5742 25.7873 27.3389 28.0138C25.1035 30.2402 22.264 31.7445 19.1811 32.3353C16.0982 32.9262 12.9112 32.577 10.0251 31.3321C7.139 30.0872 4.68407 28.0028 2.9723 25.3439C1.26052 22.6849 0.369203 19.5714 0.411602 16.399C0.469842 12.1898 2.16558 8.17312 5.1316 5.21892C8.09761 2.26472 12.0951 0.61077 16.2585 0.615243ZM15.4184 31.7735C15.4872 31.8079 15.5622 31.8276 15.6388 31.8313C15.7153 31.835 15.7919 31.8227 15.8635 31.7952C15.9352 31.7676 16.0005 31.7254 16.0553 31.6712C16.1101 31.617 16.1533 31.552 16.1821 31.4801C16.3807 31.1172 16.648 30.7774 16.8847 30.4299L22.6507 21.9357C22.7042 21.8508 22.7729 21.7504 22.8569 21.7272C23.4755 21.5033 24.1018 21.2639 24.7356 21.0863C25.3695 20.9087 25.8277 20.8778 26.3776 20.7774C26.4487 20.7659 26.5215 20.7796 26.5838 20.816C26.9733 21.1403 27.3475 21.4724 27.7523 21.8199L24.6975 24.2909C25.2091 24.8083 25.6979 25.3179 26.1867 25.8353C26.5031 26.0684 26.7362 26.399 26.8511 26.7774C26.8893 27.04 27.0573 27.0554 27.2482 27.0168C27.3382 26.9818 27.4173 26.9231 27.4773 26.8469C27.905 26.3064 28.348 25.7735 28.7451 25.2098C29.3656 24.3283 29.8785 23.3741 30.2725 22.3681L30.0739 22.206C29.7128 21.9484 29.3708 21.6645 29.0506 21.3566C28.6764 20.9627 28.3709 20.5071 28.0349 20.0824L26.6602 18.3759L25.0029 19.0631C24.4683 18.4222 23.9414 17.7967 23.4221 17.1635C23.2128 16.9531 23.0376 16.7108 22.9028 16.4454C21.551 12.9087 20.2221 9.372 18.8857 5.84304L18.0532 3.64227C17.7172 4.09787 17.3964 4.5303 17.0833 4.97046C16.6596 5.51276 16.2645 6.07725 15.8996 6.66158C15.3039 7.71177 14.7693 8.79285 14.2118 9.88165C14.1252 10.0453 14.0201 10.1982 13.8987 10.3373C13.028 11.2484 12.1574 12.1519 11.2944 13.0631C10.9304 13.4267 10.5958 13.8192 10.294 14.2369C9.59899 15.3025 8.94984 16.399 8.27014 17.4801C8.21321 17.5755 8.13126 17.653 8.03339 17.704C7.17804 18.1365 6.32269 18.5457 5.47497 18.9859C5.27021 19.0995 5.08669 19.2485 4.93274 19.4261C4.26068 20.1983 3.59626 21.0322 2.93947 21.843C2.91011 21.8868 2.86683 21.9191 2.81682 21.9345C2.7668 21.95 2.71307 21.9477 2.66453 21.928C2.49652 21.8817 2.31323 21.8585 2.09176 21.8199L2.43542 22.677L2.57289 22.5689C3.11512 22.0979 3.65735 21.6346 4.18431 21.1635C4.90604 20.397 5.78432 19.7989 6.758 19.4106L8.33123 18.6925C8.33962 19.0149 8.2518 19.3324 8.07921 19.6037C7.59044 20.2678 7.14749 20.9627 6.68927 21.6423L4.06212 25.5419L4.99384 26.6925L8.39233 22.5457H8.43815C7.67445 24.1365 6.62817 25.5573 5.79573 27.0631C6.54434 28.2348 7.6026 29.1711 8.85056 29.7658L8.92692 29.6346L11.0271 25.6346C11.0826 25.5273 11.1491 25.4264 11.2257 25.3334C11.5999 24.9241 11.9894 24.5149 12.356 24.121C12.4909 23.9785 12.6551 23.8678 12.8371 23.7967C13.151 23.6805 13.4101 23.4489 13.5626 23.1481C14.4409 21.6037 15.3497 20.0593 16.2509 18.5149C16.2923 18.4499 16.3382 18.3879 16.3883 18.3295L16.5793 20.121L18.626 16.8778C18.6302 16.9292 18.6302 16.9808 18.626 17.0322C18.2696 18.9885 17.9056 20.9473 17.5339 22.9087C17.2057 24.9412 16.7698 26.9544 16.228 28.9396C15.8843 29.9125 15.6857 30.8469 15.4184 31.7735ZM4.65017 22.3527H4.58907C4.10794 22.8623 3.6268 23.3797 3.15331 23.8971C3.13851 23.9271 3.13082 23.9601 3.13082 23.9936C3.13082 24.0271 3.13851 24.0602 3.15331 24.0901C3.32132 24.3913 3.50461 24.6847 3.6879 24.9782C3.78718 25.1403 3.90938 25.2948 4.04684 25.5033L4.65017 22.3527Z" fill="white"/>
<path d="M13.7077 14.5146C12.1803 16.6536 10.9049 18.9161 9.23242 20.9161C9.23242 20.8775 9.23242 20.8312 9.23242 20.7926C10.2787 18.6227 11.2944 16.4373 12.3789 14.2829C12.8256 13.4826 13.3178 12.7091 13.8528 11.9663C13.9371 11.8901 14.0453 11.8464 14.1583 11.8428C14.2573 11.8338 14.3516 11.7962 14.4302 11.7346C14.5087 11.673 14.5681 11.59 14.6013 11.4953C15.2581 10.0204 15.9149 8.54546 16.6022 7.086C16.7413 6.82559 16.9161 6.58641 17.1215 6.37557C17.3124 6.15164 17.5339 5.96631 17.7477 5.75781C17.5645 6.53001 17.3812 7.24044 17.1902 7.98175C16.9993 8.72306 16.7473 9.67287 16.564 10.53C16.5561 10.8323 16.5921 11.1341 16.6709 11.4258C16.6709 11.6651 16.7473 11.8968 16.7778 12.1362C16.7969 12.2148 16.7969 12.2969 16.7778 12.3756L14.418 18.5532C14.3892 18.5976 14.3637 18.644 14.3416 18.6922C14.2958 18.113 14.25 17.6034 14.2041 17.0937C14.1507 16.4528 14.0896 15.8041 14.0514 15.1632C14.0245 14.9101 13.9012 14.6775 13.7077 14.5146Z" fill="white"/>
<path d="M17.7629 16.6158C17.4802 16.1956 17.2251 15.7571 16.9992 15.3031C16.8853 15.0079 16.864 14.6844 16.9381 14.3765C17.404 12.3533 17.9157 10.3301 18.4121 8.31469C18.4228 8.26444 18.4381 8.21531 18.4579 8.16797H18.519C18.519 8.82434 18.519 9.48843 18.519 10.1525C18.5385 10.4921 18.6133 10.826 18.7405 11.1409C18.9827 11.8215 19.0329 12.5567 18.8856 13.2645C18.7939 13.89 18.7557 14.5232 18.6717 15.1409C18.6365 15.3445 18.5612 15.5388 18.4503 15.7124C18.2441 16.0135 17.9768 16.2992 17.7629 16.6158Z" fill="white"/>
<path d="M22.6434 19.0248L20.4745 22.1137C20.3767 21.9227 20.3257 21.7109 20.3257 21.4959C20.3257 21.2809 20.3767 21.069 20.4745 20.8781C20.68 20.4967 20.866 20.105 21.032 19.7044C21.0557 19.6326 21.1046 19.5722 21.1694 19.5345C21.6506 19.3414 22.1393 19.1638 22.6281 18.9785L22.6434 19.0248Z" fill="white"/>
</g>
<defs>
<clipPath id="clip0_9716_3103">
<rect width="33" height="33" fill="white"/>
</clipPath>
</defs>
</svg>
